HIERARCHY
ROOT Hips
{
  OFFSET 5.84602e-005 68.8428 3.50346
  CHANNELS 6 Xposition Yposition Zposition Zrotation Xrotation Yrotation
  JOINT Spine
  {
    OFFSET 0 8.597 -4.6522
    CHANNELS 3 Zrotation Xrotation Yrotation
    JOINT Spine1
    {
      OFFSET 0 7.8454 0.4098
      CHANNELS 3 Zrotation Xrotation Yrotation
      JOINT Spine2
      {
        OFFSET 0 9.7078 -2.1609
        CHANNELS 3 Zrotation Xrotation Yrotation
        JOINT Neck
        {
          OFFSET 0 21.8761 -0.4549
          CHANNELS 3 Zrotation Xrotation Yrotation
          JOINT Head
          {
            OFFSET 0 12.3537 3.3602
            CHANNELS 3 Zrotation Xrotation Yrotation
            End Site
            {
              OFFSET 0.0001 18.9506 0.5657
            }
          }
        }
        JOINT LeftShoulder
        {
          OFFSET 2.2086 21.1115 7.2329
          CHANNELS 3 Zrotation Xrotation Yrotation
          JOINT LeftArm
          {
            OFFSET 13.1193 3.0282 -4.8998
            CHANNELS 3 Zrotation Xrotation Yrotation
            JOINT LeftForeArm
            {
              OFFSET 27.4081 -0.0973053 -0.2375
              CHANNELS 3 Zrotation Xrotation Yrotation
              JOINT LeftHand
              {
                OFFSET 22.8641 0.0662994 -0.1369
                CHANNELS 3 Zrotation Xrotation Yrotation
                JOINT LeftHandIndex1
                {
                  OFFSET 8.8614 0.775009 2.4612
                  CHANNELS 3 Zrotation Xrotation Yrotation
                  JOINT LeftHandIndex2
                  {
                    OFFSET 3.3146 -0.808304 0.5841
                    CHANNELS 3 Zrotation Xrotation Yrotation
                    JOINT LeftHandIndex3
                    {
                      OFFSET 2.2628 -0.552002 0.3989
                      CHANNELS 3 Zrotation Xrotation Yrotation
                      End Site
                      {
                        OFFSET 1.6102 -0.4807 0.2612
                      }
                    }
                  }
                }
                JOINT LeftHandMiddle1
                {
                  OFFSET 8.9937 0.895004 0.2143
                  CHANNELS 3 Zrotation Xrotation Yrotation
                  JOINT LeftHandMiddle2
                  {
                    OFFSET 4.0984 0.0113983 -0.0242
                    CHANNELS 3 Zrotation Xrotation Yrotation
                    JOINT LeftHandMiddle3
                    {
                      OFFSET 2.2716 0.00689697 -0.0138001
                      CHANNELS 3 Zrotation Xrotation Yrotation
                      End Site
                      {
                        OFFSET 2.0404 -0.1441 0.0027
                      }
                    }
                  }
                }
                JOINT LeftHandRing1
                {
                  OFFSET 8.5234 0.597198 -2.0164
                  CHANNELS 3 Zrotation Xrotation Yrotation
                  JOINT LeftHandRing2
                  {
                    OFFSET 3.7188 -0.188293 -0.2328
                    CHANNELS 3 Zrotation Xrotation Yrotation
                    JOINT LeftHandRing3
                    {
                      OFFSET 2.1191 -0.106598 -0.1332
                      CHANNELS 3 Zrotation Xrotation Yrotation
                      End Site
                      {
                        OFFSET 1.8737 -0.2304 -0.0886
                      }
                    }
                  }
                }
                JOINT LeftHandPinky1
                {
                  OFFSET 7.9094 -0.601089 -3.4825
                  CHANNELS 3 Zrotation Xrotation Yrotation
                  JOINT LeftHandPinky2
                  {
                    OFFSET 2.2874 -0.477005 -0.6314
                    CHANNELS 3 Zrotation Xrotation Yrotation
                    JOINT LeftHandPinky3
                    {
                      OFFSET 1.6774 -0.349396 -0.4633
                      CHANNELS 3 Zrotation Xrotation Yrotation
                      End Site
                      {
                        OFFSET 1.4888 -0.4091 -0.3416
                      }
                    }
                  }
                }
                JOINT LeftHandThumb1
                {
                  OFFSET 1.833 -1.3875 1.3896
                  CHANNELS 3 Zrotation Xrotation Yrotation
                  JOINT LeftHandThumb2
                  {
                    OFFSET 3.4129 -1.121 2.5732
                    CHANNELS 3 Zrotation Xrotation Yrotation
                    JOINT LeftHandThumb3
                    {
                      OFFSET 2.2474 -0.804199 1.6192
                      CHANNELS 3 Zrotation Xrotation Yrotation
                      End Site
                      {
                        OFFSET 1.6527 -0.5689 1.1317
                      }
                    }
                  }
                }
              }
            }
          }
        }
        JOINT RightShoulder
        {
          OFFSET -2.2086 21.1115 7.2329
          CHANNELS 3 Zrotation Xrotation Yrotation
          JOINT RightArm
          {
            OFFSET -13.1216 3.0287 -4.9007
            CHANNELS 3 Zrotation Xrotation Yrotation
            JOINT RightForeArm
            {
              OFFSET -27.4081 -0.0973053 -0.2375
              CHANNELS 3 Zrotation Xrotation Yrotation
              JOINT RightHand
              {
                OFFSET -22.8641 0.0664063 -0.1369
                CHANNELS 3 Zrotation Xrotation Yrotation
                JOINT RightHandIndex1
                {
                  OFFSET -8.8614 0.774994 2.4612
                  CHANNELS 3 Zrotation Xrotation Yrotation
                  JOINT RightHandIndex2
                  {
                    OFFSET -3.3146 -0.808304 0.5841
                    CHANNELS 3 Zrotation Xrotation Yrotation
                    JOINT RightHandIndex3
                    {
                      OFFSET -2.2628 -0.552002 0.3989
                      CHANNELS 3 Zrotation Xrotation Yrotation
                      End Site
                      {
                        OFFSET -1.6102 -0.4807 0.2612
                      }
                    }
                  }
                }
                JOINT RightHandMiddle1
                {
                  OFFSET -8.9937 0.894989 0.2143
                  CHANNELS 3 Zrotation Xrotation Yrotation
                  JOINT RightHandMiddle2
                  {
                    OFFSET -4.0984 0.0113983 -0.0242
                    CHANNELS 3 Zrotation Xrotation Yrotation
                    JOINT RightHandMiddle3
                    {
                      OFFSET -2.2716 0.00691223 -0.0138001
                      CHANNELS 3 Zrotation Xrotation Yrotation
                      End Site
                      {
                        OFFSET -2.0404 -0.1441 0.0027
                      }
                    }
                  }
                }
                JOINT RightHandRing1
                {
                  OFFSET -8.5234 0.597198 -2.0164
                  CHANNELS 3 Zrotation Xrotation Yrotation
                  JOINT RightHandRing2
                  {
                    OFFSET -3.7188 -0.188309 -0.2328
                    CHANNELS 3 Zrotation Xrotation Yrotation
                    JOINT RightHandRing3
                    {
                      OFFSET -2.1191 -0.106598 -0.1332
                      CHANNELS 3 Zrotation Xrotation Yrotation
                      End Site
                      {
                        OFFSET -1.8737 -0.2304 -0.0886
                      }
                    }
                  }
                }
                JOINT RightHandPinky1
                {
                  OFFSET -7.9094 -0.601105 -3.4825
                  CHANNELS 3 Zrotation Xrotation Yrotation
                  JOINT RightHandPinky2
                  {
                    OFFSET -2.2874 -0.477005 -0.6314
                    CHANNELS 3 Zrotation Xrotation Yrotation
                    JOINT RightHandPinky3
                    {
                      OFFSET -1.6774 -0.349396 -0.4633
                      CHANNELS 3 Zrotation Xrotation Yrotation
                      End Site
                      {
                        OFFSET -1.4888 -0.4091 -0.3416
                      }
                    }
                  }
                }
                JOINT RightHandThumb1
                {
                  OFFSET -1.833 -1.38751 1.3896
                  CHANNELS 3 Zrotation Xrotation Yrotation
                  JOINT RightHandThumb2
                  {
                    OFFSET -3.41299 -1.12099 2.5732
                    CHANNELS 3 Zrotation Xrotation Yrotation
                    JOINT RightHandThumb3
                    {
                      OFFSET -2.24741 -0.804108 1.6192
                      CHANNELS 3 Zrotation Xrotation Yrotation
                      End Site
                      {
                        OFFSET -1.6527 -0.5689 1.1317
                      }
                    }
                  }
                }
              }
            }
          }
        }
      }
    }
  }
  JOINT RightUpLeg
  {
    OFFSET -9.1966 3.8861 -0.7581
    CHANNELS 3 Zrotation Xrotation Yrotation
    JOINT RightLeg
    {
      OFFSET -0.7359 -41.0265 0
      CHANNELS 3 Zrotation Xrotation Yrotation
      JOINT RightFoot
      {
        OFFSET 0 -40.2855 0
        CHANNELS 3 Zrotation Xrotation Yrotation
        JOINT RightToeBase
        {
          OFFSET 0 -5.6122 11.7359
          CHANNELS 3 Zrotation Xrotation Yrotation
          End Site
          {
            OFFSET 0 0 7.8731
          }
        }
      }
    }
  }
  JOINT LeftUpLeg
  {
    OFFSET 9.1965 3.8864 -0.7581
    CHANNELS 3 Zrotation Xrotation Yrotation
    JOINT LeftLeg
    {
      OFFSET 0.7359 -41.0268 0
      CHANNELS 3 Zrotation Xrotation Yrotation
      JOINT LeftFoot
      {
        OFFSET 0 -40.2855 0
        CHANNELS 3 Zrotation Xrotation Yrotation
        JOINT LeftToeBase
        {
          OFFSET 0 -5.6122 11.7359
          CHANNELS 3 Zrotation Xrotation Yrotation
          End Site
          {
            OFFSET 0 0 7.8731
          }
        }
      }
    }
  }
}
MOTION
Frames:	5
Frame Time:	0.0333333
39.6536 19.6219 12.0714 -0 -64.0139 -0 -1.81445 -5.8605 -0.712633 -3.73188 -11.6948 -1.62539 -3.73188 -11.6948 -1.62539 -18.7861 2.83438 1.99387 -1.2967 -21.8962 0.726664 14.0034 6.52166 19.2184 -4.94208 52.8643 15.8836 7.29324 40.4507 -10.5946 12.3214 -5.85023 -14.635 -4.26145e-015 -6.4605e-016 3.18055e-015 -2.02836e-009 2.64805e-008 2.55051e-009 3.11843e-015 -5.46658e-016 4.77083e-015 -4.26145e-015 -6.4605e-016 3.18055e-015 -0.0146129 -8.86691e-005 -1.7493e-007 2.16178e-015 2.48481e-016 3.18055e-015 -4.26145e-015 -6.4605e-016 3.18055e-015 -0.0187539 -0.00117585 5.93756e-005 -2.31087e-015 -3.97569e-016 -1.59028e-015 -4.26145e-015 -6.4605e-016 3.18055e-015 -0.0122575 -0.00324493 0.000675266 4.09993e-016 0 1.59028e-015 -4.26145e-015 -6.4605e-016 3.18055e-015 -2.02836e-009 2.64805e-008 2.55051e-009 3.11843e-015 -5.46658e-016 4.77083e-015 -11.5333 5.02856 -16.1802 2.75108 53.0683 -7.12941 -0.365786 40.9621 0.444606 -7.56812 -0.207418 20.2761 -1.37596e-015 -3.97569e-016 -3.97569e-016 -1.37907e-015 -1.98785e-016 -3.97569e-016 -1.38217e-015 -1.98785e-016 -3.97569e-016 -1.37596e-015 -3.97569e-016 -3.97569e-016 0.0149918 -9.1029e-005 7.91381e-007 2.17421e-017 -9.93923e-017 7.95139e-016 -1.37596e-015 -3.97569e-016 -3.97569e-016 0.0189911 -0.00119086 -5.97344e-005 3.50358e-015 -2.98177e-016 3.97569e-016 -1.37596e-015 -3.97569e-016 -3.97569e-016 0.0122716 -0.00324899 -0.000677767 -3.08116e-015 9.93923e-017 -3.97569e-016 -1.37596e-015 -3.97569e-016 -3.97569e-016 -1.37907e-015 -1.98785e-016 -3.97569e-016 -1.38217e-015 -1.98785e-016 -3.97569e-016 -42.0585 17.1152 -42.6483 -141.382 24.5085 174.908 28.2085 31.2899 -59.6677 -1.17507e-006 3.53702e-007 1.43605e-006 47.7566 16.9005 33.5001 132.268 28.0031 -172.567 -31.7757 39.4125 28.47 7.30861e-007 2.40442e-007 -3.59239e-007 
39.6536 19.6682 12.0714 -0 -64.0139 -0 -1.81378 -5.95305 -0.72145 -3.73363 -11.8795 -1.64657 -3.73362 -11.8795 -1.64656 -18.7895 3.02385 2.05841 -1.29402 -21.6033 0.733771 14.1326 6.5651 19.1001 -4.9421 52.8642 15.8836 7.29324 40.4507 -10.5946 12.2906 -5.49776 -14.7512 8.57259e-016 -3.97569e-016 -0 2.34193e-015 -6.95746e-016 -0 3.86388e-015 -5.96354e-016 -0 8.57259e-016 -3.97569e-016 -0 -0.0146205 -8.88919e-005 -1.16711e-006 -3.10601e-017 1.49089e-016 -1.59028e-015 8.57259e-016 -3.97569e-016 -0 -0.018734 -0.00117464 5.95642e-005 9.50439e-016 1.49089e-016 -0 8.57259e-016 -3.97569e-016 -0 -0.0123401 -0.00326634 0.000680014 -3.32343e-015 1.98785e-016 1.59028e-015 8.57259e-016 -3.97569e-016 -0 2.34193e-015 -6.95746e-016 -0 3.86388e-015 -5.96354e-016 -0 -11.6783 5.06333 -15.9837 2.75108 53.0683 -7.12941 -0.365781 40.9621 0.444594 -7.55174 0.135437 20.3419 -1.69225e-006 -3.98927e-009 1.99172e-007 -4.9634e-015 9.93923e-017 -7.95139e-016 -1.69225e-006 -3.98927e-009 1.99172e-007 -1.69225e-006 -3.98927e-009 1.99172e-007 0.0149849 -9.10622e-005 2.60055e-007 -1.69221e-006 -3.96342e-009 1.99174e-007 -1.69225e-006 -3.98927e-009 1.99172e-007 0.0190042 -0.00119154 -5.89717e-005 -1.6922e-006 -3.95962e-009 1.99191e-007 -1.69225e-006 -3.98927e-009 1.99172e-007 0.0122898 -0.00325299 -0.000679714 -1.69221e-006 -3.98479e-009 1.99219e-007 -1.69225e-006 -3.98927e-009 1.99172e-007 -4.9634e-015 9.93923e-017 -7.95139e-016 -1.69225e-006 -3.98927e-009 1.99172e-007 -42.0542 17.1098 -42.6565 -141.387 24.5065 174.909 28.3399 31.2077 -59.7315 -3.18055e-015 -6.36111e-015 1.59028e-015 47.7523 16.8969 33.5064 132.272 28.0015 -172.569 -31.9054 39.3284 28.5424 2.19194e-006 7.22722e-007 -1.07748e-006 
39.6536 19.7145 12.0714 -0 -64.0139 -0 -1.81311 -6.04559 -0.730262 -3.7354 -12.0642 -1.66775 -3.7354 -12.0642 -1.66775 -18.793 3.21327 2.12291 -1.29139 -21.3104 0.740845 14.262 6.60823 18.9818 -4.94208 52.8643 15.8836 7.29323 40.4507 -10.5946 12.2605 -5.14524 -14.8672 6.58474e-016 -9.93923e-017 3.18055e-015 2.85269e-010 -2.8002e-008 8.52422e-007 2.26739e-015 -2.98177e-016 1.59028e-015 6.58474e-016 -9.93923e-017 3.18055e-015 -0.0146273 -8.89396e-005 1.27206e-006 2.90101e-015 0 1.59028e-015 6.58474e-016 -9.93923e-017 3.18055e-015 -0.018754 -0.0011759 5.91272e-005 -8.88319e-016 1.98785e-016 -3.18055e-015 6.58474e-016 -9.93923e-017 3.18055e-015 -0.012305 -0.0032574 0.000678267 1.05604e-015 -5.46658e-016 3.18055e-015 6.58474e-016 -9.93923e-017 3.18055e-015 2.85269e-010 -2.8002e-008 8.52422e-007 2.26739e-015 -2.98177e-016 1.59028e-015 -11.8234 5.09756 -15.787 2.75108 53.0684 -7.12941 -0.365782 40.9621 0.444604 -7.53575 0.478296 20.4075 -2.65253e-015 9.93923e-017 -3.97569e-016 5.62188e-016 4.96962e-016 -3.97569e-016 3.76759e-015 2.48481e-016 -7.95139e-016 -2.65253e-015 9.93923e-017 -3.97569e-016 0.0149966 -9.10795e-005 1.19284e-007 2.18974e-015 -3.97569e-016 -3.97569e-016 -2.65253e-015 9.93923e-017 -3.97569e-016 0.0190003 -0.00119102 -5.89834e-005 -2.92897e-015 1.49089e-016 -0 -2.65253e-015 9.93923e-017 -3.97569e-016 0.0122687 -0.00324792 -0.000675268 1.66172e-015 -2.98177e-016 7.95139e-016 -2.65253e-015 9.93923e-017 -3.97569e-016 5.62188e-016 4.96962e-016 -3.97569e-016 3.76759e-015 2.48481e-016 -7.95139e-016 -42.0498 17.1044 -42.6646 -141.391 24.5044 174.91 28.4711 31.1253 -59.795 7.68863e-007 2.58822e-006 2.5352e-007 47.7479 16.8933 33.5128 132.277 27.9998 -172.571 -32.0349 39.2443 28.6146 1.69592e-006 -2.68037e-006 -7.21251e-007 
39.6536 19.7608 12.0714 -0 -64.0139 -0 -1.81243 -6.13812 -0.739072 -3.73721 -12.249 -1.68895 -3.73721 -12.2489 -1.68895 -18.7969 3.40269 2.1875 -1.28881 -21.0175 0.747898 14.3914 6.65113 18.8633 -4.9421 52.8642 15.8836 7.29323 40.4507 -10.5946 12.2311 -4.79269 -14.9829 1.02498e-015 2.73329e-016 -3.18055e-015 2.67738e-015 4.47266e-016 -3.18055e-015 -5.3734e-016 3.97569e-016 -3.18055e-015 1.02498e-015 2.73329e-016 -3.18055e-015 -0.0146013 -8.89421e-005 2.22028e-006 -3.99457e-007 -7.74162e-008 2.131e-007 1.02498e-015 2.73329e-016 -3.18055e-015 -0.0187437 -0.00117524 5.86075e-005 1.5499e-015 2.98177e-016 1.59028e-015 1.02498e-015 2.73329e-016 -3.18055e-015 -0.0123036 -0.00325713 0.000678752 6.18096e-016 -8.19987e-016 -0 1.02498e-015 2.73329e-016 -3.18055e-015 2.67738e-015 4.47266e-016 -3.18055e-015 -5.3734e-016 3.97569e-016 -3.18055e-015 -11.9687 5.13131 -15.5903 2.75109 53.0684 -7.12941 -0.36577 40.9621 0.444587 -7.52016 0.821152 20.473 2.7395e-015 -9.93923e-017 -0 -9.44312e-007 -3.93317e-008 1.3199e-007 2.1711e-015 -9.93923e-017 7.95139e-016 2.7395e-015 -9.93923e-017 -0 0.0149946 -9.11033e-005 1.09261e-007 1.1368e-015 -1.49089e-016 -0 2.7395e-015 -9.93923e-017 -0 0.0190049 -0.0011917 -5.93925e-005 1.48312e-015 -9.93923e-017 -0 2.7395e-015 -9.93923e-017 -0 0.0122606 -0.00324671 -0.000674355 1.36354e-015 -4.96962e-017 3.97569e-016 2.7395e-015 -9.93923e-017 -0 -9.44312e-007 -3.93317e-008 1.3199e-007 2.1711e-015 -9.93923e-017 7.95139e-016 -42.0455 17.0989 -42.6727 -141.395 24.5024 174.91 28.6021 31.0428 -59.8583 3.38126e-007 1.83669e-007 7.5708e-007 47.7436 16.8897 33.5191 132.281 27.9982 -172.573 -32.1641 39.16 28.6863 1.46044e-006 4.83672e-007 -7.17993e-007 
39.6536 19.8071 12.0714 -0 -64.0139 -0 -1.81174 -6.23063 -0.747879 -3.73906 -12.4336 -1.71016 -3.73905 -12.4336 -1.71016 -18.8007 3.59213 2.25206 -1.28627 -20.7247 0.754909 14.521 6.69376 18.7447 -4.94209 52.8642 15.8836 7.29323 40.4508 -10.5946 12.2025 -4.44011 -15.0983 9.95476e-016 -7.0817e-016 3.18055e-015 4.17023e-009 -5.29591e-008 -5.02004e-009 -2.57022e-015 -1.2424e-017 -3.18055e-015 9.95476e-016 -7.0817e-016 3.18055e-015 -0.0146234 -8.88782e-005 -2.66276e-007 -4.05114e-007 -6.85911e-008 2.21496e-007 9.95476e-016 -7.0817e-016 3.18055e-015 -0.0187756 -0.00117724 5.99966e-005 2.58109e-015 -5.09386e-016 -0 9.95476e-016 -7.0817e-016 3.18055e-015 -0.0122552 -0.00324438 0.000677049 -4.05393e-007 -6.82045e-008 2.21427e-007 9.95476e-016 -7.0817e-016 3.18055e-015 4.17023e-009 -5.29591e-008 -5.02004e-009 -2.57022e-015 -1.2424e-017 -3.18055e-015 -12.114 5.16456 -15.3934 2.75109 53.0684 -7.12941 -0.36578 40.9621 0.444604 -7.50497 1.164 20.5385 7.2106e-015 4.96962e-017 -3.97569e-016 4.03005e-015 2.48481e-016 -0 7.21526e-015 2.98177e-016 3.97569e-016 7.2106e-015 4.96962e-017 -3.97569e-016 0.0149872 -9.10828e-005 2.38218e-007 -1.98306e-007 -1.31946e-008 5.19444e-008 7.2106e-015 4.96962e-017 -3.97569e-016 0.0189986 -0.00119117 -6.04124e-005 4.48819e-015 1.98785e-016 3.97569e-016 7.2106e-015 4.96962e-017 -3.97569e-016 0.012267 -0.00324731 -0.000677487 -1.59804e-015 -1.49089e-016 -0 7.2106e-015 4.96962e-017 -3.97569e-016 4.03005e-015 2.48481e-016 -0 7.21526e-015 2.98177e-016 3.97569e-016 -42.0411 17.0935 -42.6809 -141.399 24.5004 174.911 28.7329 30.9603 -59.9212 4.65999e-008 -6.37148e-007 2.26676e-007 47.7392 16.8862 33.5255 132.285 27.9966 -172.574 -32.2929 39.0757 28.7578 2.19001e-006 7.26901e-007 -1.07674e-006 
